<svg width="14" height="11" viewBox="0 0 14 11" fill="none" xmlns="http://www.w3.org/2000/svg">
<path d="M7 0.25C7.32812 0.25 7.63281 0.4375 7.79688 0.71875L12.8594 9.34375C13.0234 9.64844 13.0234 10 12.8594 10.2812C12.6953 10.5859 12.3906 10.75 12.0625 10.75H1.9375C1.58594 10.75 1.28125 10.5859 1.11719 10.2812C0.953125 10 0.953125 9.64844 1.11719 9.34375L6.17969 0.71875C6.34375 0.4375 6.64844 0.25 7 0.25ZM7 3.25C6.67188 3.25 6.4375 3.50781 6.4375 3.8125V6.4375C6.4375 6.76562 6.67188 7 7 7C7.30469 7 7.5625 6.76562 7.5625 6.4375V3.8125C7.5625 3.50781 7.30469 3.25 7 3.25ZM7.75 8.5C7.75 8.10156 7.39844 7.75 7 7.75C6.57812 7.75 6.25 8.10156 6.25 8.5C6.25 8.92188 6.57812 9.25 7 9.25C7.39844 9.25 7.75 8.92188 7.75 8.5Z" fill="#BA5C00"/>
</svg>
