<svg width="104" height="16" viewBox="0 0 104 16" fill="none" xmlns="http://www.w3.org/2000/svg">
<g clip-path="url(#clip0_1_1577)">
<path fill-rule="evenodd" clip-rule="evenodd" d="M5.22399 14.9228C7.28507 14.9228 9.12645 13.8416 9.91224 12.1689L9.94982 12.0904H10.2389L10.263 12.1973C10.3232 12.4657 10.3516 13.4451 10.3825 14.4824V14.5571H11.9386C11.9324 14.203 11.9039 13.6326 11.8741 13.0337C11.8341 12.2209 11.7878 11.2993 11.7878 10.7346V0.758301H10.2346V7.65794C10.2346 12.0036 7.64593 13.5521 5.22399 13.5521C2.75436 13.5521 1.55376 12.0325 1.55376 8.90625V0.758301H0V8.99682C0 12.9846 1.70841 14.9228 5.22399 14.9228Z" fill="#185ADB"/>
<path fill-rule="evenodd" clip-rule="evenodd" d="M21.9693 14.9503C24.6167 14.9503 27.7078 13.7906 27.7078 10.5217C27.7078 7.95427 26.0606 7.02683 23.5876 6.42653C23.4431 6.39377 23.274 6.36052 23.0948 6.32535C21.7901 6.06808 19.8186 5.67976 19.8186 4.06626C19.8186 3.05114 20.853 2.34244 22.3345 2.34244C23.5279 2.34244 24.5271 2.80977 25.3066 3.73239L27.2757 2.24174C26.3622 0.81518 24.6235 0 22.4853 0C19.8976 0 17.1124 1.35767 17.1124 4.33606C17.1124 7.04755 19.1619 7.77842 21.4456 8.3421C21.5622 8.36908 21.6918 8.39655 21.8286 8.42593C23.0923 8.69573 25.0017 9.10332 25.0017 10.672C25.0017 12.0027 23.4291 12.6093 21.9664 12.6093C20.3891 12.6093 19.3441 11.8167 18.4566 10.9418L16.5425 12.5182C17.826 14.2218 19.4573 14.9503 21.9693 14.9503Z" fill="#185ADB"/>
<path fill-rule="evenodd" clip-rule="evenodd" d="M33.2402 8.77174C33.2339 8.67538 33.2108 8.5824 33.2117 8.48267H33.2064C33.2059 8.58191 33.2324 8.67201 33.2402 8.77174Z" fill="#185ADB"/>
<path d="M44.6722 7.50573C44.6722 4.04314 42.8578 0 37.7446 0C33.4842 0 30.3916 3.14365 30.3916 7.47537C30.3916 11.8765 33.4032 14.9503 37.7147 14.9503C40.4127 14.9503 42.4555 14.0262 43.9567 12.1251L42.0599 10.6725C40.8555 12.1179 39.5898 12.7923 38.0819 12.7923C35.6305 12.7938 33.0988 11.1803 33.0988 8.47941V8.37005H44.6722V7.50573ZM41.8576 6.39762H33.0988V6.28729C33.0988 4.24693 34.9806 1.97532 37.6839 1.97532C40.2976 1.97532 41.899 3.58689 41.967 6.28585L41.9699 6.3981L41.8576 6.39762Z" fill="#185ADB"/>
<path fill-rule="evenodd" clip-rule="evenodd" d="M41.8526 6.28736H41.8569C41.8545 6.18667 41.8362 6.09465 41.829 5.99829C41.8352 6.09465 41.8516 6.18571 41.8526 6.28736Z" fill="#185ADB"/>
<path fill-rule="evenodd" clip-rule="evenodd" d="M44.6702 8.48047L44.7265 8.48095V8.48047H44.6702Z" fill="#185ADB"/>
<path fill-rule="evenodd" clip-rule="evenodd" d="M43.9706 12.2686C44.0053 12.2272 44.0438 12.1916 44.078 12.1487H44.0751C44.0419 12.1892 44.0048 12.2262 43.9706 12.2686Z" fill="#185ADB"/>
<path fill-rule="evenodd" clip-rule="evenodd" d="M58.496 10.9255L58.6285 11.058L58.4989 10.9226L58.496 10.9255Z" fill="#185ADB"/>
<path fill-rule="evenodd" clip-rule="evenodd" d="M54.9544 12.6107C52.1904 12.6107 50.1847 10.5024 50.1847 7.59721C50.1847 4.99557 51.6127 2.37032 54.8026 2.37032C56.2542 2.37032 57.3368 2.84103 58.4025 3.94094L60.3118 2.19977C58.9787 0.800185 57.0699 0.0317383 54.9235 0.0317383C50.5393 0.0317383 47.479 3.11805 47.479 7.53698C47.479 11.9 50.5393 14.9502 54.9235 14.9502C57.1561 14.9502 58.9493 14.2401 60.255 12.8395L58.4627 11.0473C57.5021 12.1274 56.4171 12.6107 54.9544 12.6107Z" fill="#185ADB"/>
<path fill-rule="evenodd" clip-rule="evenodd" d="M72.9129 7.68838C72.9129 10.8166 71.4073 12.6108 68.7821 12.6108C66.654 12.6108 65.3836 11.1808 65.3836 8.7854V0.366211H62.8605V9.54662C62.8605 13.5305 65.5103 14.9498 67.9905 14.9498C70.1104 14.9498 71.9368 13.9588 72.6431 12.4248L72.6725 12.3612H72.9134V14.5846H75.4355V0.366211H72.9134L72.9129 7.68838Z" fill="#185ADB"/>
<path fill-rule="evenodd" clip-rule="evenodd" d="M65.4929 0.384029L65.4934 0.311279H65.4929V0.384029Z" fill="#185ADB"/>
<path fill-rule="evenodd" clip-rule="evenodd" d="M75.4797 14.6938L75.4905 14.6944V14.6938H75.4797Z" fill="#185ADB"/>
<path fill-rule="evenodd" clip-rule="evenodd" d="M87.9195 0.152828C87.5604 0.0488252 87.1881 -0.00261747 86.8143 0.000102467C85.0384 0.000102467 83.2611 1.06003 82.5881 2.52562L82.5587 2.5897H82.3178V0.366259H79.7957V14.5847H82.3178V7.44464C82.3178 4.30003 83.7482 2.70532 86.57 2.70532C86.9179 2.70532 87.3134 2.76362 87.8058 2.88792L87.9195 0.152828Z" fill="#185ADB"/>
<path fill-rule="evenodd" clip-rule="evenodd" d="M87.7258 2.98706C87.7706 3.00344 87.8097 3.00778 87.8554 3.02657V3.01597C87.8121 3.0044 87.7692 2.99766 87.7258 2.98706Z" fill="#185ADB"/>
<path fill-rule="evenodd" clip-rule="evenodd" d="M101.127 6.28715H101.131C101.129 6.18164 101.11 6.0848 101.102 5.98218C101.107 6.08528 101.124 6.18019 101.127 6.28715Z" fill="#185ADB"/>
<path fill-rule="evenodd" clip-rule="evenodd" d="M92.5109 8.75412C92.5051 8.66114 92.4835 8.57634 92.4839 8.48047H92.4786C92.4791 8.57586 92.5027 8.66114 92.5109 8.75412Z" fill="#185ADB"/>
<path fill-rule="evenodd" clip-rule="evenodd" d="M103.943 8.48047L104 8.48095V8.48047H103.943Z" fill="#185ADB"/>
<path d="M103.945 7.50573C103.945 4.04314 102.131 0 97.0174 0C92.757 0 89.6644 3.14365 89.6644 7.47537C89.6644 11.8765 92.6756 14.9503 96.9876 14.9503C99.6856 14.9503 101.728 14.0262 103.231 12.1251L101.33 10.6725C100.126 12.1179 98.8607 12.7923 97.3537 12.7923C94.9043 12.7923 92.3706 11.1789 92.3706 8.47893V8.36957H103.945V7.50573ZM101.13 6.39762H92.3697V6.28729C92.3697 4.24693 94.2534 1.97387 96.9567 1.97387C99.5694 1.97387 101.17 3.58544 101.24 6.2844L101.243 6.39666L101.13 6.39762Z" fill="#185ADB"/>
<path fill-rule="evenodd" clip-rule="evenodd" d="M103.251 12.26C103.283 12.2209 103.319 12.1882 103.351 12.1487H103.349C103.317 12.1892 103.283 12.2209 103.251 12.26Z" fill="#185ADB"/>
</g>
<defs>
<clipPath id="clip0_1_1577">
<rect width="104" height="16" fill="white"/>
</clipPath>
</defs>
</svg>
